<?xml version="1.0" encoding="utf-8"?>
<!-- Generator: Adobe Illustrator 26.5.0, SVG Export Plug-In . SVG Version: 6.00 Build 0)  -->
<svg version="1.1" id="Warstwa_1" xmlns="http://www.w3.org/2000/svg" xmlns:xlink="http://www.w3.org/1999/xlink" x="0px" y="0px"
	 viewBox="0 0 100 100" style="enable-background:new 0 0 100 100;" xml:space="preserve">
<style type="text/css">
	.st0{fill:#68DA71;}
	.st1{fill:#448447;}
</style>
<g>
	<path class="st0" d="M54.42,74.77l-3.13-8.58H29.05l-3.13,8.58H14.28L33.53,25h13.28l19.18,49.77H54.42z M40.17,34.18l-8.28,22.83
		h16.49L40.17,34.18z"/>
</g>
<g>
	<path class="st1" d="M69.72,67.54c1.64,1.71,4.18,3.14,7.38,3.14c2.72,0,4.04-1.29,4.04-2.61c0-1.74-2.02-2.33-4.7-2.96
		c-3.8-0.87-8.67-1.92-8.67-7.11c0-3.87,3.34-7,8.81-7c3.69,0,6.76,1.11,9.06,3.24l-2.75,3.62c-1.88-1.74-4.39-2.54-6.65-2.54
		c-2.23,0-3.41,0.98-3.41,2.37c0,1.57,1.95,2.05,4.63,2.68c3.83,0.87,8.71,2.02,8.71,7.17c0,4.25-3.03,7.46-9.3,7.46
		c-4.46,0-7.66-1.5-9.86-3.69L69.72,67.54z"/>
</g>
<g>
	<path class="st1" d="M68.62,49V25h5.11v19.5h10.15V49H68.62z"/>
</g>
</svg>
